<svg width="1200" height="675" xmlns="http://www.w3.org/2000/svg">
  <defs>
    <linearGradient id="g1" x1="0" y1="0" x2="1" y2="1"><stop offset="0" stop-color="#0D1117"/><stop offset="1" stop-color="#161B22"/></linearGradient>
  </defs>
  <rect width="1200" height="675" fill="url(#g1)"/>

  <!-- Top nav -->
  <rect x="0" y="0" width="1200" height="48" fill="#161B22"/>
  <text x="24" y="30" fill="#F0F2F5" font-family="system-ui,sans-serif" font-size="14" font-weight="600">AI Content OS</text>
  <rect x="400" y="12" width="70" height="24" rx="6" fill="rgba(16,185,129,0.1)"/>
  <text x="435" y="29" fill="#10B981" font-family="system-ui,sans-serif" font-size="10" font-weight="500" text-anchor="middle">Kanban</text>
  <rect x="480" y="12" width="60" height="24" rx="6" fill="none" stroke="none"/>
  <text x="510" y="29" fill="#8B949E" font-family="system-ui,sans-serif" font-size="10" text-anchor="middle">Calendar</text>
  <rect x="550" y="12" width="65" height="24" rx="6" fill="none" stroke="none"/>
  <text x="582" y="29" fill="#8B949E" font-family="system-ui,sans-serif" font-size="10" text-anchor="middle">Analytics</text>

  <circle cx="1150" cy="24" r="14" fill="#30363D"/>

  <!-- Column: Ideas -->
  <rect x="16" y="60" width="260" height="380" rx="8" fill="#161B22" stroke="#21262D" stroke-width="1"/>
  <rect x="16" y="60" width="260" height="36" rx="8" fill="#161B22"/>
  <text x="32" y="84" fill="#F0F2F5" font-family="system-ui,sans-serif" font-size="11" font-weight="600">Ideas</text>
  <rect x="228" y="70" width="32" height="16" rx="8" fill="rgba(16,185,129,0.1)"/>
  <text x="244" y="82" fill="#10B981" font-family="system-ui,sans-serif" font-size="9" font-weight="600" text-anchor="middle">12</text>

  <rect x="28" y="108" width="236" height="72" rx="6" fill="#0D1117" stroke="#21262D" stroke-width="1"/>
  <text x="44" y="128" fill="#F0F2F5" font-family="system-ui,sans-serif" font-size="10" font-weight="500">n8n workflows tutorial</text>
  <text x="44" y="146" fill="#6E7681" font-family="system-ui,sans-serif" font-size="9">YouTube script · AI Assisted</text>
  <rect x="44" y="156" width="40" height="14" rx="7" fill="rgba(16,185,129,0.08)"/>
  <text x="64" y="166" fill="#10B981" font-family="system-ui,sans-serif" font-size="8" font-weight="500" text-anchor="middle">video</text>

  <rect x="28" y="192" width="236" height="60" rx="6" fill="#0D1117" stroke="#21262D" stroke-width="1"/>
  <text x="44" y="212" fill="#F0F2F5" font-family="system-ui,sans-serif" font-size="10" font-weight="500">Python automation guide</text>
  <text x="44" y="230" fill="#6E7681" font-family="system-ui,sans-serif" font-size="9">Newsletter · Draft</text>

  <!-- Column: Writing -->
  <rect x="288" y="60" width="260" height="380" rx="8" fill="#161B22" stroke="#21262D" stroke-width="1"/>
  <rect x="288" y="60" width="260" height="36" rx="8" fill="#161B22"/>
  <text x="304" y="84" fill="#F0F2F5" font-family="system-ui,sans-serif" font-size="11" font-weight="600">Writing</text>

  <rect x="300" y="108" width="236" height="80" rx="6" fill="#0D1117" stroke="#10B981" stroke-width="1"/>
  <text x="316" y="128" fill="#F0F2F5" font-family="system-ui,sans-serif" font-size="10" font-weight="500">How I built my CRM</text>
  <text x="316" y="146" fill="#8B949E" font-family="system-ui,sans-serif" font-size="9">90% complete · Claude reviewed</text>
  <rect x="316" y="156" width="60" height="6" rx="3" fill="#21262D"/>
  <rect x="316" y="156" width="54" height="6" rx="3" fill="#10B981"/>

  <rect x="300" y="200" width="236" height="60" rx="6" fill="#0D1117" stroke="#21262D" stroke-width="1"/>
  <text x="316" y="220" fill="#F0F2F5" font-family="system-ui,sans-serif" font-size="10" font-weight="500">Data pipelines 101</text>
  <text x="316" y="238" fill="#8B949E" font-family="system-ui,sans-serif" font-size="9">Outline · Researching</text>

  <!-- Column: Review -->
  <rect x="560" y="60" width="260" height="380" rx="8" fill="#161B22" stroke="#21262D" stroke-width="1"/>
  <rect x="560" y="60" width="260" height="36" rx="8" fill="#161B22"/>
  <text x="576" y="84" fill="#F0F2F5" font-family="system-ui,sans-serif" font-size="11" font-weight="600">Review</text>

  <rect x="572" y="108" width="236" height="70" rx="6" fill="#0D1117" stroke="#21262D" stroke-width="1"/>
  <text x="588" y="128" fill="#F0F2F5" font-family="system-ui,sans-serif" font-size="10" font-weight="500">AI agents deep dive</text>
  <text x="588" y="146" fill="#D29922" font-family="system-ui,sans-serif" font-size="9">Awaiting final review</text>
  <text x="588" y="164" fill="#6E7681" font-family="system-ui,sans-serif" font-size="8">Scheduled: Friday 10am</text>

  <!-- Column: Published -->
  <rect x="832" y="60" width="352" height="380" rx="8" fill="#161B22" stroke="#21262D" stroke-width="1"/>
  <rect x="832" y="60" width="352" height="36" rx="8" fill="#161B22"/>
  <text x="848" y="84" fill="#F0F2F5" font-family="system-ui,sans-serif" font-size="11" font-weight="600">Published</text>

  <rect x="848" y="108" width="320" height="60" rx="6" fill="#0D1117" stroke="#10B981" stroke-width="1"/>
  <text x="864" y="128" fill="#F0F2F5" font-family="system-ui,sans-serif" font-size="10" font-weight="500">Automation saves 12h/week</text>
  <text x="864" y="146" fill="#8B949E" font-family="system-ui,sans-serif" font-size="9">LinkedIn · 847 impressions · +12% engagement</text>

  <rect x="848" y="180" width="320" height="60" rx="6" fill="#0D1117" stroke="#10B981" stroke-width="1"/>
  <text x="864" y="200" fill="#F0F2F5" font-family="system-ui,sans-serif" font-size="10" font-weight="500">PostgreSQL tips for devs</text>
  <text x="864" y="218" fill="#8B949E" font-family="system-ui,sans-serif" font-size="9">Twitter · 2.1K likes · 380 retweets</text>

  <!-- AI Assistant panel right -->
  <rect x="860" y="452" width="320" height="200" rx="8" fill="#161B22" stroke="#10B981" stroke-width="1.5"/>
  <text x="880" y="478" fill="#10B981" font-family="system-ui,sans-serif" font-size="11" font-weight="600">Claude Assistant</text>
  <rect x="1070" y="464" width="40" height="16" rx="8" fill="rgba(16,185,129,0.1)"/>
  <text x="1090" y="476" fill="#10B981" font-family="system-ui,sans-serif" font-size="8" font-weight="500" text-anchor="middle">Active</text>

  <rect x="880" y="492" width="280" height="50" rx="6" fill="#0D1117"/>
  <text x="896" y="512" fill="#8B949E" font-family="system-ui,sans-serif" font-size="9">Generate a LinkedIn post about my</text>
  <text x="896" y="528" fill="#8B949E" font-family="system-ui,sans-serif" font-size="9">CRM automation project. Highlight</text>

  <rect x="880" y="552" width="280" height="48" rx="6" fill="#0D1117"/>
  <text x="896" y="572" fill="#10B981" font-family="system-ui,sans-serif" font-size="9">Sure! Here's a draft:</text>
  <text x="896" y="588" fill="#F0F2F5" font-family="system-ui,sans-serif" font-size="9">"I built a CRM that saves my clients</text>

  <!-- Stats bar bottom -->
  <rect x="16" y="452" width="828" height="60" rx="8" fill="#0D1117"/>
  <text x="32" y="478" fill="#8B949E" font-family="system-ui,sans-serif" font-size="9">Content this month</text>
  <text x="32" y="498" fill="#F0F2F5" font-family="system-ui,sans-serif" font-size="18" font-weight="700">120</text>
  <text x="152" y="478" fill="#8B949E" font-family="system-ui,sans-serif" font-size="9">Avg. engagement</text>
  <text x="152" y="498" fill="#10B981" font-family="system-ui,sans-serif" font-size="18" font-weight="700">+40%</text>
  <text x="312" y="478" fill="#8B949E" font-family="system-ui,sans-serif" font-size="9">Time saved</text>
  <text x="312" y="498" fill="#F0F2F5" font-family="system-ui,sans-serif" font-size="18" font-weight="700">-65%</text>
  <text x="452" y="478" fill="#8B949E" font-family="system-ui,sans-serif" font-size="9">Assets indexed</text>
  <text x="452" y="498" fill="#F0F2F5" font-family="system-ui,sans-serif" font-size="18" font-weight="700">2.4K</text>
  <text x="592" y="478" fill="#8B949E" font-family="system-ui,sans-serif" font-size="9">Platforms</text>
  <text x="592" y="498" fill="#F0F2F5" font-family="system-ui,sans-serif" font-size="18" font-weight="700">4</text>

  <!-- Calendar mini -->
  <rect x="16" y="524" width="828" height="130" rx="8" fill="#161B22" stroke="#21262D" stroke-width="1"/>
  <text x="36" y="546" fill="#F0F2F5" font-family="system-ui,sans-serif" font-size="11" font-weight="600">Schedule · This week</text>

  <rect x="36" y="560" width="108" height="80" rx="6" fill="#0D1117"/>
  <text x="90" y="582" fill="#8B949E" font-family="system-ui,sans-serif" font-size="9" text-anchor="middle">Tue</text>
  <text x="90" y="608" fill="#F0F2F5" font-family="system-ui,sans-serif" font-size="14" font-weight="700" text-anchor="middle">14</text>
  <rect x="46" y="620" width="88" height="14" rx="4" fill="rgba(16,185,129,0.1)"/>
  <text x="90" y="630" fill="#10B981" font-family="system-ui,sans-serif" font-size="8" font-weight="500" text-anchor="middle">LinkedIn</text>

  <rect x="156" y="560" width="108" height="80" rx="6" fill="#0D1117"/>
  <text x="210" y="582" fill="#8B949E" font-family="system-ui,sans-serif" font-size="9" text-anchor="middle">Wed</text>
  <text x="210" y="608" fill="#F0F2F5" font-family="system-ui,sans-serif" font-size="14" font-weight="700" text-anchor="middle">15</text>
  <rect x="166" y="620" width="88" height="14" rx="4" fill="rgba(210,153,34,0.08)"/>
  <text x="210" y="630" fill="#D29922" font-family="system-ui,sans-serif" font-size="8" font-weight="500" text-anchor="middle">Newsletter</text>

  <rect x="276" y="560" width="108" height="80" rx="6" fill="#0D1117"/>
  <text x="330" y="582" fill="#8B949E" font-family="system-ui,sans-serif" font-size="9" text-anchor="middle">Thu</text>
  <text x="330" y="608" fill="#F0F2F5" font-family="system-ui,sans-serif" font-size="14" font-weight="700" text-anchor="middle">16</text>
  <rect x="286" y="620" width="88" height="14" rx="4" fill="rgba(16,185,129,0.1)"/>
  <text x="330" y="630" fill="#10B981" font-family="system-ui,sans-serif" font-size="8" font-weight="500" text-anchor="middle">Twitter</text>

  <rect x="396" y="560" width="108" height="80" rx="6" fill="#0D1117" stroke="#10B981" stroke-width="1"/>
  <text x="450" y="582" fill="#8B949E" font-family="system-ui,sans-serif" font-size="9" text-anchor="middle">Fri</text>
  <text x="450" y="608" fill="#F0F2F5" font-family="system-ui,sans-serif" font-size="14" font-weight="700" text-anchor="middle">17</text>
  <rect x="406" y="620" width="88" height="14" rx="4" fill="rgba(16,185,129,0.1)"/>
  <text x="450" y="630" fill="#10B981" font-family="system-ui,sans-serif" font-size="8" font-weight="500" text-anchor="middle">YouTube</text>
</svg>