<svg width="1200" height="675" xmlns="http://www.w3.org/2000/svg">
  <defs>
    <linearGradient id="g1" x1="0" y1="0" x2="1" y2="1"><stop offset="0" stop-color="#0D1117"/><stop offset="1" stop-color="#161B22"/></linearGradient>
  </defs>
  <rect width="1200" height="675" fill="url(#g1)"/>
  <rect x="0" y="0" width="1200" height="48" fill="#161B22" border-bottom="1px solid #21262D"/>

  <text x="24" y="30" fill="#F0F2F5" font-family="system-ui,sans-serif" font-size="14" font-weight="600">CRM Suite · Pipeline</text>
  <circle cx="10" cy="24" r="12" fill="#10B981"/>
  <text x="10" y="29" fill="#090C10" font-family="system-ui,sans-serif" font-size="10" font-weight="700" text-anchor="middle">P</text>

  <!-- Tabs -->
  <rect x="400" y="12" width="100" height="28" rx="6" fill="rgba(16,185,129,0.1)"/>
  <text x="450" y="31" fill="#10B981" font-family="system-ui,sans-serif" font-size="11" font-weight="500" text-anchor="middle">Deals</text>
  <rect x="508" y="12" width="80" height="28" rx="6" fill="none" stroke="none"/>
  <text x="548" y="31" fill="#8B949E" font-family="system-ui,sans-serif" font-size="11" text-anchor="middle">Contacts</text>
  <rect x="596" y="12" width="80" height="28" rx="6" fill="none" stroke="none"/>
  <text x="636" y="31" fill="#8B949E" font-family="system-ui,sans-serif" font-size="11" text-anchor="middle">Activity</text>

  <!-- Pipeline: Qualification -->
  <rect x="24" y="64" width="274" height="280" rx="8" fill="#161B22" stroke="#21262D" stroke-width="1"/>
  <rect x="24" y="64" width="274" height="40" rx="8" fill="#161B22"/>
  <text x="44" y="89" fill="#F0F2F5" font-family="system-ui,sans-serif" font-size="12" font-weight="600">Qualification</text>
  <rect x="224" y="74" width="50" height="18" rx="9" fill="rgba(16,185,129,0.1)"/>
  <text x="249" y="87" fill="#10B981" font-family="system-ui,sans-serif" font-size="10" font-weight="600" text-anchor="middle">18</text>

  <rect x="36" y="116" width="250" height="70" rx="6" fill="#0D1117" stroke="#21262D" stroke-width="1"/>
  <text x="52" y="138" fill="#F0F2F5" font-family="system-ui,sans-serif" font-size="11" font-weight="500">Acme Corp</text>
  <text x="52" y="156" fill="#8B949E" font-family="system-ui,sans-serif" font-size="10">CRM integration · €4.5k</text>
  <text x="52" y="174" fill="#6E7681" font-family="system-ui,sans-serif" font-size="9">Contact: Maria · 2h ago</text>

  <rect x="36" y="196" width="250" height="70" rx="6" fill="#0D1117" stroke="#21262D" stroke-width="1"/>
  <text x="52" y="218" fill="#F0F2F5" font-family="system-ui,sans-serif" font-size="11" font-weight="500">TechFlow</text>
  <text x="52" y="236" fill="#8B949E" font-family="system-ui,sans-serif" font-size="10">n8n automation · €8.2k</text>
  <text x="52" y="254" fill="#6E7681" font-family="system-ui,sans-serif" font-size="9">Contact: Alex · 1d ago</text>

  <!-- Pipeline: Proposal -->
  <rect x="312" y="64" width="274" height="280" rx="8" fill="#161B22" stroke="#21262D" stroke-width="1"/>
  <rect x="312" y="64" width="274" height="40" rx="8" fill="#161B22"/>
  <text x="332" y="89" fill="#F0F2F5" font-family="system-ui,sans-serif" font-size="12" font-weight="600">Proposal</text>
  <rect x="506" y="74" width="50" height="18" rx="9" fill="rgba(210,153,34,0.1)"/>
  <text x="531" y="87" fill="#D29922" font-family="system-ui,sans-serif" font-size="10" font-weight="600" text-anchor="middle">14</text>

  <rect x="324" y="116" width="250" height="80" rx="6" fill="#0D1117" stroke="#21262D" stroke-width="1"/>
  <text x="340" y="138" fill="#F0F2F5" font-family="system-ui,sans-serif" font-size="11" font-weight="500">DataVault</text>
  <text x="340" y="156" fill="#8B949E" font-family="system-ui,sans-serif" font-size="10">BI dashboard · €12k</text>
  <text x="340" y="174" fill="#6E7681" font-family="system-ui,sans-serif" font-size="9">Proposal sent · 3h ago</text>
  <rect x="340" y="182" width="60" height="4" rx="2" fill="#21262D"/>
  <rect x="340" y="182" width="42" height="4" rx="2" fill="#D29922"/>

  <!-- Pipeline: Negotiation -->
  <rect x="602" y="64" width="274" height="280" rx="8" fill="#161B22" stroke="#21262D" stroke-width="1"/>
  <rect x="602" y="64" width="274" height="40" rx="8" fill="#161B22"/>
  <text x="622" y="89" fill="#F0F2F5" font-family="system-ui,sans-serif" font-size="12" font-weight="600">Negotiation</text>
  <rect x="796" y="74" width="50" height="18" rx="9" fill="rgba(16,185,129,0.1)"/>
  <text x="821" y="87" fill="#10B981" font-family="system-ui,sans-serif" font-size="10" font-weight="600" text-anchor="middle">10</text>

  <rect x="614" y="116" width="250" height="70" rx="6" fill="#0D1117" stroke="#21262D" stroke-width="1"/>
  <text x="630" y="138" fill="#F0F2F5" font-family="system-ui,sans-serif" font-size="11" font-weight="500">CloudSync</text>
  <text x="630" y="156" fill="#8B949E" font-family="system-ui,sans-serif" font-size="10">Infra automation · €15k</text>
  <text x="630" y="174" fill="#6E7681" font-family="system-ui,sans-serif" font-size="9">Meeting scheduled · 6h ago</text>

  <!-- Pipeline: Closed Won -->
  <rect x="892" y="64" width="284" height="280" rx="8" fill="#161B22" stroke="#10B981" stroke-width="1"/>
  <rect x="892" y="64" width="284" height="40" rx="8" fill="#161B22"/>
  <text x="912" y="89" fill="#F0F2F5" font-family="system-ui,sans-serif" font-size="12" font-weight="600">Closed Won</text>
  <rect x="1072" y="74" width="50" height="18" rx="9" fill="rgba(16,185,129,0.1)"/>
  <text x="1097" y="87" fill="#10B981" font-family="system-ui,sans-serif" font-size="10" font-weight="600" text-anchor="middle">8</text>

  <rect x="904" y="116" width="250" height="70" rx="6" fill="#0D1117" stroke="#10B981" stroke-width="1"/>
  <text x="920" y="138" fill="#F0F2F5" font-family="system-ui,sans-serif" font-size="11" font-weight="500">Neural</text>
  <text x="920" y="156" fill="#8B949E" font-family="system-ui,sans-serif" font-size="10">AI content system · €22k</text>
  <text x="920" y="174" fill="#10B981" font-family="system-ui,sans-serif" font-size="9">✓ Closed · 2d ago</text>

  <!-- WhatsApp panel -->
  <rect x="24" y="360" width="580" height="130" rx="8" fill="#161B22" stroke="#21262D" stroke-width="1"/>
  <text x="44" y="382" fill="#F0F2F5" font-family="system-ui,sans-serif" font-size="11" font-weight="600">WhatsApp Integration</text>
  <rect x="258" y="368" width="60" height="16" rx="8" fill="rgba(16,185,129,0.1)"/>
  <text x="288" y="379" fill="#10B981" font-family="system-ui,sans-serif" font-size="9" font-weight="500" text-anchor="middle">Connected</text>

  <rect x="44" y="398" width="540" height="34" rx="6" fill="#0D1117"/>
  <text x="60" y="420" fill="#8B949E" font-family="system-ui,sans-serif" font-size="10">User: Hola, ¿tienen integración con Stripe?</text>

  <rect x="44" y="440" width="540" height="34" rx="6" fill="#0D1117"/>
  <text x="60" y="462" fill="#10B981" font-family="system-ui,sans-serif" font-size="10">Bot: ¡Sí! Nuestro CRM procesa pagos con Stripe automáticamente. ¿Te paso más info?</text>

  <!-- Stripe panel -->
  <rect x="620" y="360" width="556" height="130" rx="8" fill="#161B22" stroke="#21262D" stroke-width="1"/>
  <text x="640" y="382" fill="#F0F2F5" font-family="system-ui,sans-serif" font-size="11" font-weight="600">Stripe Billing</text>
  <rect x="856" y="368" width="60" height="16" rx="8" fill="rgba(16,185,129,0.1)"/>
  <text x="886" y="379" fill="#10B981" font-family="system-ui,sans-serif" font-size="9" font-weight="500" text-anchor="middle">Active</text>

  <text x="640" y="410" fill="#F0F2F5" font-family="system-ui,sans-serif" font-size="18" font-weight="700">€12.4k</text>
  <text x="640" y="428" fill="#8B949E" font-family="system-ui,sans-serif" font-size="10">MRR · +18% this month</text>

  <rect x="780" y="398" width="180" height="60" rx="6" fill="#0D1117"/>
  <text x="800" y="420" fill="#F0F2F5" font-family="system-ui,sans-serif" font-size="12" font-weight="600">Subscribers</text>
  <text x="800" y="444" fill="#10B981" font-family="system-ui,sans-serif" font-size="20" font-weight="700">42</text>

  <rect x="976" y="398" width="180" height="60" rx="6" fill="#0D1117"/>
  <text x="996" y="420" fill="#F0F2F5" font-family="system-ui,sans-serif" font-size="12" font-weight="600">Churn</text>
  <text x="996" y="444" fill="#34D399" font-family="system-ui,sans-serif" font-size="20" font-weight="700">2.3%</text>

  <!-- Bottom stats -->
  <rect x="24" y="506" width="580" height="54" rx="8" fill="#0D1117"/>
  <text x="40" y="532" fill="#8B949E" font-family="system-ui,sans-serif" font-size="10">Tenants</text>
  <text x="40" y="550" fill="#F0F2F5" font-family="system-ui,sans-serif" font-size="16" font-weight="700">40</text>
  <text x="160" y="532" fill="#8B949E" font-family="system-ui,sans-serif" font-size="10">Deals Active</text>
  <text x="160" y="550" fill="#F0F2F5" font-family="system-ui,sans-serif" font-size="16" font-weight="700">42</text>
  <text x="300" y="532" fill="#8B949E" font-family="system-ui,sans-serif" font-size="10">Query p95</text>
  <text x="300" y="550" fill="#10B981" font-family="system-ui,sans-serif" font-size="16" font-weight="700">48ms</text>
  <text x="440" y="532" fill="#8B949E" font-family="system-ui,sans-serif" font-size="10">Coverage</text>
  <text x="440" y="550" fill="#F0F2F5" font-family="system-ui,sans-serif" font-size="16" font-weight="700">98%</text>

  <rect x="620" y="506" width="556" height="54" rx="8" fill="#0D1117"/>
  <text x="640" y="526" fill="#6E7681" font-family="system-ui,sans-serif" font-size="10">Recent activity: Stripe payment €2.4k · WhatsApp lead created · Deal moved to Negotiation</text>
  <text x="640" y="546" fill="#484F58" font-family="system-ui,sans-serif" font-size="9">Docker · Caddy · PostgreSQL · Hetzner · GitHub Actions CI/CD</text>
</svg>