<svg width="1600" height="1000" viewBox="0 0 1600 1000" fill="none" xmlns="http://www.w3.org/2000/svg">
  <rect width="1600" height="1000" fill="#090C10"/>
  <rect x="48" y="48" width="1504" height="904" rx="36" fill="#0E1117" stroke="#1F6F55" stroke-width="2"/>
  <circle cx="1320" cy="124" r="220" fill="#10B981" opacity="0.08"/>
  <circle cx="260" cy="844" r="260" fill="#38BDF8" opacity="0.06"/>
  <path d="M172 232H1428" stroke="#1F2937" stroke-width="2"/>

  <text x="140" y="140" fill="#34D399" font-family="ui-monospace, SFMono-Regular, Menlo, Consolas, monospace" font-size="28" font-weight="700">SERVIDORES VPS</text>
  <text x="140" y="184" fill="#8B949E" font-family="Inter, system-ui, sans-serif" font-size="24">Infraestructura basica para desplegar proyectos reales</text>

  <rect x="1160" y="104" width="260" height="56" rx="28" fill="#10B981" fill-opacity="0.12" stroke="#10B981" stroke-opacity="0.35"/>
  <text x="1196" y="140" fill="#34D399" font-family="ui-monospace, SFMono-Regular, Menlo, Consolas, monospace" font-size="18">SSH + UFW + Docker</text>

  <rect x="120" y="300" width="440" height="430" rx="24" fill="#0B1016" stroke="#30363D"/>
  <rect x="120" y="300" width="440" height="52" rx="24" fill="#161B22"/>
  <circle cx="154" cy="326" r="8" fill="#EF4444"/>
  <circle cx="180" cy="326" r="8" fill="#F59E0B"/>
  <circle cx="206" cy="326" r="8" fill="#10B981"/>
  <text x="242" y="333" fill="#8B949E" font-family="ui-monospace, SFMono-Regular, Menlo, Consolas, monospace" font-size="15">terminal@contabo-vps</text>
  <text x="150" y="394" fill="#34D399" font-family="ui-monospace, SFMono-Regular, Menlo, Consolas, monospace" font-size="22">$ ssh luis@vps</text>
  <text x="150" y="438" fill="#8B949E" font-family="ui-monospace, SFMono-Regular, Menlo, Consolas, monospace" font-size="18">root login disabled for daily use</text>
  <text x="150" y="482" fill="#34D399" font-family="ui-monospace, SFMono-Regular, Menlo, Consolas, monospace" font-size="22">$ sudo ufw status</text>
  <text x="150" y="526" fill="#8B949E" font-family="ui-monospace, SFMono-Regular, Menlo, Consolas, monospace" font-size="18">22/tcp   ALLOW   SSH</text>
  <text x="150" y="560" fill="#8B949E" font-family="ui-monospace, SFMono-Regular, Menlo, Consolas, monospace" font-size="18">80/tcp   ALLOW   HTTP</text>
  <text x="150" y="594" fill="#8B949E" font-family="ui-monospace, SFMono-Regular, Menlo, Consolas, monospace" font-size="18">443/tcp  ALLOW   HTTPS</text>
  <text x="150" y="650" fill="#34D399" font-family="ui-monospace, SFMono-Regular, Menlo, Consolas, monospace" font-size="22">$ docker ps</text>
  <text x="150" y="694" fill="#8B949E" font-family="ui-monospace, SFMono-Regular, Menlo, Consolas, monospace" font-size="18">dokploy / traefik / apps</text>

  <rect x="690" y="276" width="240" height="132" rx="20" fill="#161B22" stroke="#10B981" stroke-opacity="0.45"/>
  <text x="810" y="330" text-anchor="middle" fill="#F0F2F5" font-family="Inter, system-ui, sans-serif" font-size="26" font-weight="700">VPS</text>
  <text x="810" y="364" text-anchor="middle" fill="#8B949E" font-family="Inter, system-ui, sans-serif" font-size="17">Ubuntu + Docker</text>

  <rect x="670" y="512" width="280" height="122" rx="20" fill="#101820" stroke="#34D399" stroke-opacity="0.5"/>
  <text x="810" y="564" text-anchor="middle" fill="#34D399" font-family="Inter, system-ui, sans-serif" font-size="25" font-weight="700">Dokploy</text>
  <text x="810" y="596" text-anchor="middle" fill="#8B949E" font-family="Inter, system-ui, sans-serif" font-size="16">deploys, logs, env vars</text>

  <rect x="1030" y="408" width="260" height="112" rx="20" fill="#161B22" stroke="#38BDF8" stroke-opacity="0.45"/>
  <text x="1160" y="458" text-anchor="middle" fill="#BAE6FD" font-family="Inter, system-ui, sans-serif" font-size="24" font-weight="700">Traefik</text>
  <text x="1160" y="490" text-anchor="middle" fill="#8B949E" font-family="Inter, system-ui, sans-serif" font-size="16">reverse proxy + HTTPS</text>

  <rect x="1030" y="618" width="260" height="112" rx="20" fill="#161B22" stroke="#F59E0B" stroke-opacity="0.45"/>
  <text x="1160" y="668" text-anchor="middle" fill="#FCD34D" font-family="Inter, system-ui, sans-serif" font-size="24" font-weight="700">Cloudflare</text>
  <text x="1160" y="700" text-anchor="middle" fill="#8B949E" font-family="Inter, system-ui, sans-serif" font-size="16">DNS, proxy, Zero Trust</text>

  <rect x="690" y="762" width="240" height="96" rx="20" fill="#101820" stroke="#A78BFA" stroke-opacity="0.45"/>
  <text x="810" y="816" text-anchor="middle" fill="#DDD6FE" font-family="Inter, system-ui, sans-serif" font-size="24" font-weight="700">Tailscale</text>
  <text x="810" y="844" text-anchor="middle" fill="#8B949E" font-family="Inter, system-ui, sans-serif" font-size="15">private network</text>

  <rect x="1320" y="292" width="120" height="72" rx="16" fill="#0B1016" stroke="#30363D"/>
  <text x="1380" y="336" text-anchor="middle" fill="#F0F2F5" font-family="ui-monospace, SFMono-Regular, Menlo, Consolas, monospace" font-size="16">app_01</text>
  <rect x="1320" y="392" width="120" height="72" rx="16" fill="#0B1016" stroke="#30363D"/>
  <text x="1380" y="436" text-anchor="middle" fill="#F0F2F5" font-family="ui-monospace, SFMono-Regular, Menlo, Consolas, monospace" font-size="16">app_02</text>
  <rect x="1320" y="492" width="120" height="72" rx="16" fill="#0B1016" stroke="#30363D"/>
  <text x="1380" y="536" text-anchor="middle" fill="#F0F2F5" font-family="ui-monospace, SFMono-Regular, Menlo, Consolas, monospace" font-size="16">db</text>

  <path d="M560 515H670" stroke="#34D399" stroke-width="3" stroke-linecap="round" stroke-dasharray="8 12"/>
  <path d="M810 408V512" stroke="#34D399" stroke-width="3" stroke-linecap="round"/>
  <path d="M950 573H1030" stroke="#38BDF8" stroke-width="3" stroke-linecap="round"/>
  <path d="M1160 520V618" stroke="#F59E0B" stroke-width="3" stroke-linecap="round"/>
  <path d="M1290 464H1320" stroke="#38BDF8" stroke-width="3" stroke-linecap="round"/>
  <path d="M1290 464C1310 464 1300 328 1320 328" stroke="#38BDF8" stroke-width="3" stroke-linecap="round"/>
  <path d="M1290 464C1310 464 1300 528 1320 528" stroke="#38BDF8" stroke-width="3" stroke-linecap="round"/>
  <path d="M810 634V762" stroke="#A78BFA" stroke-width="3" stroke-linecap="round" stroke-dasharray="10 10"/>

  <rect x="140" y="790" width="390" height="74" rx="18" fill="#161B22" stroke="#30363D"/>
  <text x="172" y="834" fill="#8B949E" font-family="Inter, system-ui, sans-serif" font-size="18">Capturas previstas:</text>
  <text x="338" y="834" fill="#34D399" font-family="Inter, system-ui, sans-serif" font-size="18">terminal, Dokploy, Cloudflare</text>
</svg>
